<svg width="32" height="33" viewBox="0 0 32 33" fill="none" xmlns="http://www.w3.org/2000/svg">
<path d="M10.4 2.75H21.6C25.8667 2.75 29.3334 6.325 29.3334 10.725V22.275C29.3334 24.3901 28.5186 26.4186 27.0683 27.9142C25.618 29.4098 23.651 30.25 21.6 30.25H10.4C6.13335 30.25 2.66669 26.675 2.66669 22.275V10.725C2.66669 8.6099 3.48145 6.58143 4.93173 5.08582C6.38201 3.59022 8.34901 2.75 10.4 2.75ZM10.1334 5.5C8.86031 5.5 7.63942 6.02152 6.73924 6.94982C5.83907 7.87813 5.33335 9.13718 5.33335 10.45V22.55C5.33335 25.2862 7.48002 27.5 10.1334 27.5H21.8667C23.1397 27.5 24.3606 26.9785 25.2608 26.0502C26.161 25.1219 26.6667 23.8628 26.6667 22.55V10.45C26.6667 7.71375 24.52 5.5 21.8667 5.5H10.1334ZM23 7.5625C23.442 7.5625 23.866 7.74358 24.1785 8.06591C24.4911 8.38824 24.6667 8.82541 24.6667 9.28125C24.6667 9.73709 24.4911 10.1743 24.1785 10.4966C23.866 10.8189 23.442 11 23 11C22.558 11 22.1341 10.8189 21.8215 10.4966C21.5089 10.1743 21.3334 9.73709 21.3334 9.28125C21.3334 8.82541 21.5089 8.38824 21.8215 8.06591C22.1341 7.74358 22.558 7.5625 23 7.5625ZM16 9.625C17.7681 9.625 19.4638 10.3493 20.7141 11.6386C21.9643 12.928 22.6667 14.6766 22.6667 16.5C22.6667 18.3234 21.9643 20.072 20.7141 21.3614C19.4638 22.6507 17.7681 23.375 16 23.375C14.2319 23.375 12.5362 22.6507 11.286 21.3614C10.0357 20.072 9.33335 18.3234 9.33335 16.5C9.33335 14.6766 10.0357 12.928 11.286 11.6386C12.5362 10.3493 14.2319 9.625 16 9.625ZM16 12.375C14.9392 12.375 13.9217 12.8096 13.1716 13.5832C12.4214 14.3568 12 15.406 12 16.5C12 17.594 12.4214 18.6432 13.1716 19.4168C13.9217 20.1904 14.9392 20.625 16 20.625C17.0609 20.625 18.0783 20.1904 18.8284 19.4168C19.5786 18.6432 20 17.594 20 16.5C20 15.406 19.5786 14.3568 18.8284 13.5832C18.0783 12.8096 17.0609 12.375 16 12.375Z" fill="#A4925A"/>
</svg>
