<svg width="32" height="33" viewBox="0 0 32 33" fill="none" xmlns="http://www.w3.org/2000/svg">
<path d="M29.9467 8.50004C28.92 8.96671 27.8133 9.27337 26.6667 9.42004C27.84 8.71337 28.7467 7.59337 29.1733 6.24671C28.0667 6.91337 26.84 7.38004 25.5467 7.64671C24.4933 6.50004 23.0133 5.83337 21.3333 5.83337C18.2 5.83337 15.64 8.39337 15.64 11.5534C15.64 12.0067 15.6933 12.4467 15.7867 12.86C11.04 12.62 6.81334 10.34 4.00001 6.88671C3.50668 7.72671 3.22668 8.71337 3.22668 9.75337C3.22668 11.74 4.22668 13.5 5.77334 14.5C4.82668 14.5 3.94668 14.2334 3.17334 13.8334V13.8734C3.17334 16.6467 5.14668 18.9667 7.76001 19.4867C6.92098 19.7163 6.04014 19.7483 5.18668 19.58C5.54882 20.7167 6.25806 21.7113 7.2147 22.4239C8.17134 23.1366 9.32727 23.5316 10.52 23.5534C8.49818 25.154 5.99201 26.0191 3.41334 26.0067C2.96001 26.0067 2.50668 25.98 2.05334 25.9267C4.58668 27.5534 7.60001 28.5 10.8267 28.5C21.3333 28.5 27.1067 19.78 27.1067 12.22C27.1067 11.9667 27.1067 11.7267 27.0933 11.4734C28.2133 10.6734 29.1733 9.66004 29.9467 8.50004Z" fill="#A4925A"/>
</svg>
