<?xml version="1.0" encoding="utf-8"?>
<!-- Generator: Adobe Illustrator 23.0.1, SVG Export Plug-In . SVG Version: 6.00 Build 0)  -->
<svg version="1.1" id="Layer_1" xmlns="http://www.w3.org/2000/svg" xmlns:xlink="http://www.w3.org/1999/xlink" x="0px" y="0px"
	 viewBox="0 0 19.9 20" style="enable-background:new 0 0 19.9 20;" xml:space="preserve">
<style type="text/css">
	.st0{fill:none;}
	.st1{fill:#B3A369;}
</style>
<path class="st0" d="M19.9,1.3L19.2,0h-2.9l3.6,6.3L19.9,1.3z M19.9,8.3L15.2,0h-2.9l7.6,13.3V8.3z M11.2,0H8.3l11.5,20h0.1v-4.7
	L11.2,0z M19.9,20.3V20h-0.1L19.9,20.3z"/>
<path class="st1" d="M2.6,20h1.2L0,13.4v2L2.6,20z M6.6,20h1.2L0,6.4v2L6.6,20z M0,0v1.4L10.6,20h1.2L0.3,0H0z M3.2,0l11.4,20h1.2
	L4.3,0H3.2z M7.2,0l11.4,20h1.2L8.3,0H7.2z M19.9,13.3L12.3,0h-1.1l8.7,15.3V13.3z M19.9,6.3L16.3,0h-1.1l4.7,8.3L19.9,6.3z M19.9,0
	h-0.7l0.7,1.3V0z"/>
</svg>
